HIERARCHY
ROOT Hips
{
	OFFSET 0.000000 97.167313 0.000000
	CHANNELS 6 Xposition Yposition Zposition Xrotation Yrotation Zrotation
	JOINT Spine
	{
		OFFSET 0.000000 13.784798 0.064400
		CHANNELS 3 Xrotation Yrotation Zrotation
		JOINT Spine1
		{
			OFFSET 0.000000 12.037903 0.404700
			CHANNELS 3 Xrotation Yrotation Zrotation
			JOINT Spine2
			{
				OFFSET 0.000000 17.795601 0.420200
				CHANNELS 3 Xrotation Yrotation Zrotation
				JOINT Neck
				{
					OFFSET 0.000000 39.131302 11.954600
					CHANNELS 3 Xrotation Yrotation Zrotation
					JOINT Head
					{
						OFFSET 0.000000 14.456192 15.627699
						CHANNELS 3 Xrotation Yrotation Zrotation
						JOINT HeadTop_End
						{
							OFFSET 0.000000 15.703506 7.603401
							CHANNELS 3 Xrotation Yrotation Zrotation
							End Site
							{
								OFFSET 0.000000 17.447403 0.000000
							}
						}
					}
				}
				JOINT LeftShoulder
				{
					OFFSET 17.399500 24.608795 1.168800
					CHANNELS 3 Xrotation Yrotation Zrotation
					JOINT LeftArm
					{
						OFFSET 18.980635 5.765305 1.818600
						CHANNELS 3 Xrotation Yrotation Zrotation
						JOINT LeftForeArm
						{
							OFFSET 49.290169 0.000000 0.000000
							CHANNELS 3 Xrotation Yrotation Zrotation
							JOINT LeftHand
							{
								OFFSET 31.562012 0.000000 0.000000
								CHANNELS 3 Xrotation Yrotation Zrotation
								JOINT LeftHandThumb1
								{
									OFFSET 6.133995 -4.388519 7.076070
									CHANNELS 3 Xrotation Yrotation Zrotation
									JOINT LeftHandThumb2
									{
										OFFSET 6.037666 -3.485840 3.485847
										CHANNELS 3 Xrotation Yrotation Zrotation
										JOINT LeftHandThumb3
										{
											OFFSET 6.496506 -3.750763 3.750761
											CHANNELS 3 Xrotation Yrotation Zrotation
											JOINT LeftHandThumb4
											{
												OFFSET 5.616882 -3.242905 3.242910
												CHANNELS 3 Xrotation Yrotation Zrotation
												End Site
												{
													OFFSET -1.254608 7.132141 0.375429
												}
											}
										}
									}
								}
								JOINT LeftHandPinky1
								{
									OFFSET 18.920792 -0.453171 -11.426712
									CHANNELS 3 Xrotation Yrotation Zrotation
									JOINT LeftHandPinky2
									{
										OFFSET 4.919586 0.000000 0.000000
										CHANNELS 3 Xrotation Yrotation Zrotation
										JOINT LeftHandPinky3
										{
											OFFSET 5.233047 0.000000 0.000000
											CHANNELS 3 Xrotation Yrotation Zrotation
											JOINT LeftHandPinky4
											{
												OFFSET 5.571716 0.000000 0.000000
												CHANNELS 3 Xrotation Yrotation Zrotation
												End Site
												{
													OFFSET -3.459808 4.342407 -0.466164
												}
											}
										}
									}
								}
								JOINT LeftHandRing1
								{
									OFFSET 22.726120 -0.094986 -6.500475
									CHANNELS 3 Xrotation Yrotation Zrotation
									JOINT LeftHandRing2
									{
										OFFSET 6.408615 0.000000 0.000000
										CHANNELS 3 Xrotation Yrotation Zrotation
										JOINT LeftHandRing3
										{
											OFFSET 6.150223 0.000000 0.000000
											CHANNELS 3 Xrotation Yrotation Zrotation
											JOINT LeftHandRing4
											{
												OFFSET 6.145386 0.000000 0.000000
												CHANNELS 3 Xrotation Yrotation Zrotation
												End Site
												{
													OFFSET -3.671402 4.923981 -0.202372
												}
											}
										}
									}
								}
								JOINT LeftHandMiddle1
								{
									OFFSET 23.373947 0.000000 0.000001
									CHANNELS 3 Xrotation Yrotation Zrotation
									JOINT LeftHandMiddle2
									{
										OFFSET 6.996567 0.000000 0.000000
										CHANNELS 3 Xrotation Yrotation Zrotation
										JOINT LeftHandMiddle3
										{
											OFFSET 7.015945 0.000000 0.000000
											CHANNELS 3 Xrotation Yrotation Zrotation
											JOINT LeftHandMiddle4
											{
												OFFSET 7.721573 0.000000 0.000000
												CHANNELS 3 Xrotation Yrotation Zrotation
												End Site
												{
													OFFSET -4.651108 6.158463 0.251582
												}
											}
										}
									}
								}
								JOINT LeftHandIndex1
								{
									OFFSET 21.310577 -0.490082 6.209344
									CHANNELS 3 Xrotation Yrotation Zrotation
									JOINT LeftHandIndex2
									{
										OFFSET 7.536453 0.000000 0.000000
										CHANNELS 3 Xrotation Yrotation Zrotation
										JOINT LeftHandIndex3
										{
											OFFSET 7.512344 0.000000 0.000000
											CHANNELS 3 Xrotation Yrotation Zrotation
											JOINT LeftHandIndex4
											{
												OFFSET 10.212402 0.000000 0.000001
												CHANNELS 3 Xrotation Yrotation Zrotation
												End Site
												{
													OFFSET -5.180801 8.690506 1.388433
												}
											}
										}
									}
								}
							}
						}
					}
				}
				JOINT RightShoulder
				{
					OFFSET -17.399500 24.608795 1.168800
					CHANNELS 3 Xrotation Yrotation Zrotation
					JOINT RightArm
					{
						OFFSET -18.980635 5.765305 1.818600
						CHANNELS 3 Xrotation Yrotation Zrotation
						JOINT RightForeArm
						{
							OFFSET -49.290169 0.000000 0.000000
							CHANNELS 3 Xrotation Yrotation Zrotation
							JOINT RightHand
							{
								OFFSET -31.562012 0.000000 0.000000
								CHANNELS 3 Xrotation Yrotation Zrotation
								JOINT RightHandThumb1
								{
									OFFSET -6.133995 -4.388519 7.076070
									CHANNELS 3 Xrotation Yrotation Zrotation
									JOINT RightHandThumb2
									{
										OFFSET -6.037666 -3.485840 3.485847
										CHANNELS 3 Xrotation Yrotation Zrotation
										JOINT RightHandThumb3
										{
											OFFSET -6.496506 -3.750763 3.750761
											CHANNELS 3 Xrotation Yrotation Zrotation
											JOINT RightHandThumb4
											{
												OFFSET -5.616882 -3.242905 3.242910
												CHANNELS 3 Xrotation Yrotation Zrotation
												End Site
												{
													OFFSET 1.254608 7.132141 0.375429
												}
											}
										}
									}
								}
								JOINT RightHandIndex1
								{
									OFFSET -21.310577 -0.490082 6.209344
									CHANNELS 3 Xrotation Yrotation Zrotation
									JOINT RightHandIndex2
									{
										OFFSET -7.536453 0.000000 0.000000
										CHANNELS 3 Xrotation Yrotation Zrotation
										JOINT RightHandIndex3
										{
											OFFSET -7.512344 0.000000 0.000000
											CHANNELS 3 Xrotation Yrotation Zrotation
											JOINT RightHandIndex4
											{
												OFFSET -10.212402 0.000000 0.000001
												CHANNELS 3 Xrotation Yrotation Zrotation
												End Site
												{
													OFFSET 5.180801 8.690506 1.388433
												}
											}
										}
									}
								}
								JOINT RightHandMiddle1
								{
									OFFSET -23.373947 0.000000 0.000001
									CHANNELS 3 Xrotation Yrotation Zrotation
									JOINT RightHandMiddle2
									{
										OFFSET -6.996567 0.000000 0.000000
										CHANNELS 3 Xrotation Yrotation Zrotation
										JOINT RightHandMiddle3
										{
											OFFSET -7.015945 0.000000 0.000000
											CHANNELS 3 Xrotation Yrotation Zrotation
											JOINT RightHandMiddle4
											{
												OFFSET -7.721573 0.000000 0.000000
												CHANNELS 3 Xrotation Yrotation Zrotation
												End Site
												{
													OFFSET 4.651108 6.158463 0.251582
												}
											}
										}
									}
								}
								JOINT RightHandRing1
								{
									OFFSET -22.726120 -0.094986 -6.500475
									CHANNELS 3 Xrotation Yrotation Zrotation
									JOINT RightHandRing2
									{
										OFFSET -6.408615 0.000000 0.000000
										CHANNELS 3 Xrotation Yrotation Zrotation
										JOINT RightHandRing3
										{
											OFFSET -6.150223 0.000000 0.000000
											CHANNELS 3 Xrotation Yrotation Zrotation
											JOINT RightHandRing4
											{
												OFFSET -6.145386 0.000000 0.000000
												CHANNELS 3 Xrotation Yrotation Zrotation
												End Site
												{
													OFFSET 3.671402 4.923981 -0.202372
												}
											}
										}
									}
								}
								JOINT RightHandPinky1
								{
									OFFSET -18.920792 -0.453171 -11.426712
									CHANNELS 3 Xrotation Yrotation Zrotation
									JOINT RightHandPinky2
									{
										OFFSET -4.919586 0.000000 0.000000
										CHANNELS 3 Xrotation Yrotation Zrotation
										JOINT RightHandPinky3
										{
											OFFSET -5.233047 0.000000 0.000000
											CHANNELS 3 Xrotation Yrotation Zrotation
											JOINT RightHandPinky4
											{
												OFFSET -5.571716 0.000000 0.000000
												CHANNELS 3 Xrotation Yrotation Zrotation
												End Site
												{
													OFFSET 3.459808 4.342407 -0.466164
												}
											}
										}
									}
								}
							}
						}
					}
				}
			}
		}
	}
	JOINT LeftUpLeg
	{
		OFFSET 19.899099 -7.885101 -3.429500
		CHANNELS 3 Xrotation Yrotation Zrotation
		JOINT LeftLeg
		{
			OFFSET 1.745560 -36.997807 10.304700
			CHANNELS 3 Xrotation Yrotation Zrotation
			JOINT LeftFoot
			{
				OFFSET -1.745558 -29.803308 -13.615400
				CHANNELS 3 Xrotation Yrotation Zrotation
				JOINT LeftToeBase
				{
					OFFSET 1.181900 -18.539904 15.226099
					CHANNELS 3 Xrotation Yrotation Zrotation
					JOINT LeftToe_End
					{
						OFFSET -0.863701 1.402801 16.534700
						CHANNELS 3 Xrotation Yrotation Zrotation
						End Site
						{
							OFFSET 0.000000 16.616566 0.000000
						}
					}
				}
			}
		}
	}
	JOINT RightUpLeg
	{
		OFFSET -19.899099 -7.885101 -3.429500
		CHANNELS 3 Xrotation Yrotation Zrotation
		JOINT RightLeg
		{
			OFFSET -1.745560 -36.997807 10.304700
			CHANNELS 3 Xrotation Yrotation Zrotation
			JOINT RightFoot
			{
				OFFSET 1.745558 -29.803308 -13.615400
				CHANNELS 3 Xrotation Yrotation Zrotation
				JOINT RightToeBase
				{
					OFFSET -1.181900 -18.539904 15.226099
					CHANNELS 3 Xrotation Yrotation Zrotation
					JOINT RightToe_End
					{
						OFFSET 0.863701 1.402801 16.534700
						CHANNELS 3 Xrotation Yrotation Zrotation
						End Site
						{
							OFFSET 0.000000 16.616566 0.000000
						}
					}
				}
			}
		}
	}
}
MOTION
Frames: 4
Frame Time: 0.033333
-1.616523 77.579384 2.372801 7.801967 -19.616107 0.162589 4.154686 4.272017 3.957106 2.230882 1.589080 0.860509 2.196375 1.665533 0.808233 -1.935453 3.695300 -0.661192 5.162814 18.690241 -7.403652 -0.000000 -0.000001 -0.000000 8.613358 -11.681973 -2.879733 -49.485871 -1.994530 -44.042976 -0.000020 -106.004795 -0.000030 14.693236 1.385438 4.493948 -10.355882 -18.164533 -0.612247 10.166258 44.439202 3.473506 -4.021228 34.356319 21.444139 0.000002 -0.000001 -0.000005 14.702269 10.907128 -74.390295 5.247187 5.819930 -84.066030 1.122294 3.449745 -36.032882 0.000001 0.000001 0.000001 6.551725 9.294147 -62.102785 5.321217 5.827082 -84.795385 0.629964 2.644690 -26.791718 0.000000 -0.000002 0.000007 2.431920 7.055151 -53.394078 4.432912 5.677190 -75.949880 0.393617 2.113005 -21.102558 0.000002 0.000000 0.000004 -1.623601 2.464323 -39.970107 4.432937 5.677190 -75.949880 0.393623 2.112996 -21.102564 -0.000003 -0.000001 0.000001 4.720334 14.118456 -1.054181 -49.136183 29.769219 70.987631 0.000094 111.725434 -0.000082 2.246856 10.553231 0.371466 -11.269584 20.282827 1.210511 10.083162 -46.337718 -3.955781 -2.729958 -40.589738 -21.861258 -0.000002 0.000000 0.000002 -1.909769 -1.536821 39.260037 3.529757 -4.518940 75.975705 0.314029 -1.682779 21.139468 0.000001 -0.000002 0.000001 1.887730 -5.985917 52.719836 3.529762 -4.518939 75.975739 0.314024 -1.682781 21.139468 0.000001 0.000002 -0.000001 5.826230 -8.180353 61.423099 4.235973 -4.638114 84.805302 0.502498 -2.106113 26.835931 -0.000003 0.000000 -0.000005 13.716884 -9.803638 73.678890 4.177129 -4.632409 84.077320 0.894955 -2.746967 36.085156 -0.000001 -0.000001 0.000000 -51.511873 0.307477 26.700022 41.106626 -7.225998 -3.293538 3.580287 1.759715 -13.548783 -0.000386 0.000001 -0.000001 -0.000000 -0.000000 0.000000 -6.867623 -12.201639 -26.713652 38.071806 -0.120910 0.472303 -18.987089 -10.175930 28.264202 -15.850412 -0.000004 -0.000011 0.000000 0.000002 -0.000000 
-1.762110 78.731461 2.349084 8.164531 -19.217861 0.134599 3.972239 4.557685 4.125880 2.142072 1.729000 0.816136 2.103321 1.761407 0.770073 -1.929339 3.827348 -1.253426 4.759754 18.051920 -6.755543 0.000002 0.000000 -0.000000 7.879229 -13.413233 -5.798816 -52.751129 -4.717913 -41.349378 -0.000023 -105.785382 -0.000044 13.264032 1.931334 4.039007 -10.355878 -18.164538 -0.612259 10.166251 44.439191 3.473521 -4.021221 34.356302 21.444125 -0.000000 -0.000000 -0.000002 14.702279 10.907133 -74.390302 5.247220 5.819911 -84.066064 1.122287 3.449719 -36.032885 -0.000002 0.000000 -0.000002 6.551734 9.294139 -62.102792 5.321216 5.827108 -84.795392 0.629953 2.644688 -26.791735 -0.000001 0.000000 0.000003 2.431939 7.055169 -53.394082 4.432934 5.677176 -75.949873 0.393626 2.112992 -21.102559 -0.000001 -0.000002 0.000001 -1.623594 2.464327 -39.970113 4.432928 5.677178 -75.949880 0.393611 2.113012 -21.102573 -0.000001 0.000001 0.000001 4.791607 13.282348 -3.767570 -50.771200 28.386835 73.719905 -0.000050 112.048591 0.000076 3.644676 10.826476 -0.293195 -11.269582 20.282831 1.210503 10.083153 -46.337728 -3.955776 -2.729969 -40.589762 -21.861287 0.000002 -0.000001 0.000002 -1.909780 -1.536817 39.260050 3.529753 -4.518953 75.975719 0.314031 -1.682781 21.139471 -0.000001 0.000002 0.000001 1.887736 -5.985905 52.719823 3.529755 -4.518931 75.975732 0.314024 -1.682784 21.139476 0.000002 0.000000 0.000003 5.826233 -8.180348 61.423106 4.235973 -4.638121 84.805316 0.502513 -2.106110 26.835917 -0.000001 -0.000000 -0.000005 13.716885 -9.803628 73.678910 4.177139 -4.632415 84.077361 0.894954 -2.746961 36.085122 0.000006 0.000003 0.000003 -50.839034 1.047941 26.384116 38.468571 -7.232212 -3.203999 4.894683 1.493500 -13.387303 -0.000389 0.000000 0.000001 0.000000 0.000001 -0.000000 -6.853656 -12.153923 -26.003220 36.309484 -0.753200 0.479535 -16.202413 -9.475477 28.476823 -15.850429 0.000007 0.000008 0.000000 0.000002 -0.000000 
-1.849861 79.178658 2.266458 8.523869 -18.969701 0.138531 3.880995 4.642862 4.126306 2.086924 1.782354 0.805273 2.047602 1.802705 0.761042 -2.032247 3.878653 -1.455159 4.379173 17.900597 -6.478035 -0.000000 -0.000000 -0.000000 7.590752 -14.101769 -6.842993 -54.046898 -6.000621 -40.373450 0.000024 -105.637208 -0.000010 12.923581 2.197670 3.908790 -10.355876 -18.164528 -0.612253 10.166247 44.439209 3.473512 -4.021217 34.356309 21.444122 0.000003 -0.000000 0.000002 14.702278 10.907124 -74.390302 5.247208 5.819921 -84.066030 1.122290 3.449729 -36.032892 -0.000002 0.000000 -0.000006 6.551730 9.294126 -62.102778 5.321230 5.827100 -84.795419 0.629960 2.644681 -26.791719 -0.000002 -0.000005 0.000005 2.431940 7.055166 -53.394082 4.432930 5.677174 -75.949866 0.393630 2.113001 -21.102558 -0.000000 -0.000002 -0.000001 -1.623587 2.464325 -39.970110 4.432926 5.677176 -75.949853 0.393627 2.113012 -21.102581 -0.000000 0.000001 -0.000001 4.809961 12.996657 -4.537231 -51.369214 28.114664 74.376962 0.000013 112.070748 0.000021 4.287308 10.893336 -0.719264 -11.269584 20.282827 1.210520 10.083166 -46.337701 -3.955764 -2.729953 -40.589745 -21.861264 -0.000001 -0.000001 0.000002 -1.909776 -1.536818 39.260043 3.529755 -4.518938 75.975691 0.314026 -1.682776 21.139473 -0.000000 -0.000003 -0.000001 1.887742 -5.985911 52.719836 3.529759 -4.518935 75.975746 0.314027 -1.682782 21.139459 0.000001 0.000001 0.000003 5.826237 -8.180346 61.423106 4.235979 -4.638115 84.805336 0.502505 -2.106106 26.835919 -0.000001 0.000001 -0.000001 13.716888 -9.803631 73.678910 4.177126 -4.632413 84.077306 0.894951 -2.746968 36.085122 -0.000001 -0.000004 -0.000002 -50.836302 1.329290 26.239690 37.310496 -7.299065 -3.159228 5.390381 1.384299 -13.237080 -0.000389 -0.000002 -0.000002 -0.000000 0.000000 0.000000 -7.000370 -12.027701 -25.643056 35.590562 -1.072673 0.548353 -15.045127 -9.161292 28.632655 -15.850419 -0.000028 -0.000001 0.000000 0.000001 -0.000000 
-1.840452 78.790985 2.150833 8.772373 -18.809583 0.143259 3.907006 4.532561 4.047745 2.084016 1.731484 0.807936 2.044767 1.760912 0.762460 -2.194597 3.873430 -1.397541 3.934615 18.050090 -6.368318 0.000001 0.000000 -0.000000 7.632075 -14.009331 -6.694959 -53.827532 -6.060085 -40.387551 0.000142 -105.551305 0.000121 13.278507 2.199953 4.030441 -10.355872 -18.164519 -0.612241 10.166243 44.439185 3.473537 -4.021227 34.356306 21.444151 0.000001 0.000001 0.000001 14.702279 10.907150 -74.390329 5.247219 5.819928 -84.066057 1.122290 3.449715 -36.032878 0.000003 0.000002 0.000001 6.551726 9.294148 -62.102798 5.321231 5.827113 -84.795412 0.629970 2.644678 -26.791733 -0.000001 0.000000 -0.000000 2.431944 7.055187 -53.394072 4.432939 5.677173 -75.949880 0.393609 2.113000 -21.102564 -0.000001 -0.000001 0.000008 -1.623600 2.464321 -39.970120 4.432933 5.677196 -75.949900 0.393640 2.112999 -21.102592 0.000004 0.000005 0.000002 4.798991 13.195629 -3.932991 -51.049261 28.567025 73.485684 -0.000062 111.825080 0.000084 4.087066 10.944642 -0.896095 -11.269587 20.282836 1.210513 10.083159 -46.337714 -3.955787 -2.729974 -40.589748 -21.861274 0.000000 -0.000001 -0.000001 -1.909781 -1.536820 39.260043 3.529756 -4.518933 75.975678 0.314024 -1.682781 21.139488 -0.000000 -0.000001 -0.000001 1.887730 -5.985914 52.719833 3.529759 -4.518940 75.975739 0.314030 -1.682784 21.139459 -0.000002 0.000003 -0.000008 5.826225 -8.180354 61.423106 4.235981 -4.638121 84.805302 0.502505 -2.106110 26.835938 -0.000000 -0.000001 -0.000005 13.716891 -9.803630 73.678910 4.177123 -4.632415 84.077327 0.894959 -2.746965 36.085136 0.000001 0.000000 0.000004 -51.616156 1.052954 26.293568 37.920326 -7.520559 -3.191878 5.148313 1.486237 -13.235392 -0.000392 -0.000005 -0.000001 -0.000000 -0.000000 -0.000000 -7.049074 -11.985467 -25.631530 36.036922 -1.183595 0.694534 -16.105823 -9.431490 28.677632 -15.850419 -0.000001 0.000003 0.000001 0.000001 0.000000 
